<?xml version="1.0" encoding="iso-8859-1"?>
<!DOCTYPE svg PUBLIC "-//W3C//DTD SVG 1.1//EN" "http://www.w3.org/Graphics/SVG/1.1/DTD/svg11.dtd">
<svg xmlns="http://www.w3.org/2000/svg" xmlns:xlink="http://www.w3.org/1999/xlink" version="1.1" viewBox="0 0 512 512" enable-background="new 0 0 512 512" width="512px" height="512px">
  <g>
    <path d="m144,256c-8.828,0-15.984,7.156-16,16v128c0,8.844 7.172,16 16,16 8.844,0 16-7.156 16-16 0-0.016 0-0.016 0-0.031v-127.922c0-0.016 0-0.031 0-0.047 0-8.828-7.156-16-16-16z" fill="#FFFFFF"/>
    <path d="m224,256c-8.828,0-15.984,7.156-16,16v128c0,8.844 7.172,16 16,16 8.844,0 16-7.156 16-16 0-0.016 0-0.016 0-0.031v-127.922c0-0.016 0-0.031 0-0.047 0-8.828-7.156-16-16-16z" fill="#FFFFFF"/>
    <path d="m304,256c-8.828,0-15.984,7.156-16,16v128c0,8.844 7.172,16 16,16 8.844,0 16-7.156 16-16 0-0.016 0-0.016 0-0.031v-127.922c0-0.016 0-0.031 0-0.047 0-8.828-7.156-16-16-16z" fill="#FFFFFF"/>
    <path d="M481.949,238.063C472.887,228.992,460.828,224,448,224h-48v-47.928c19.441-14.464,32-37.449,32-64.072   c0-44.109-35.891-80-80-80c-14.164,0-27.883,3.758-39.961,10.797C290.992,16.039,258.641,0,224,0s-66.992,16.039-88.039,42.797   C123.883,35.758,110.164,32,96,32c-44.109,0-80,35.891-80,80c0,26.03,12.688,48.973,32,63.591V464c0,26.398,21.602,48,48,48h256   c26.398,0,48-21.602,48-48v-48h47.992C474.461,416,496,394.469,496,368v-95.992C496,259.188,491.012,247.125,481.949,238.063z    M368,464c0,8.797-7.203,16-16,16H96c-8.797,0-16-7.203-16-16V190.383C85.172,191.438,90.521,192,96,192   c14.164,0,27.883-3.758,39.961-10.797C157.008,207.961,189.359,224,224,224s66.992-16.039,88.039-42.797   C324.117,188.242,337.836,192,352,192c5.498,0,10.84-0.558,16-1.566V464z M352,160c-12.211,0-23.906-4.711-32.93-13.266   c-3.594-3.414-8.555-4.953-13.453-4.203c-4.898,0.758-9.164,3.742-11.563,8.078C279.953,176.141,253.109,192,224,192   s-55.953-15.859-70.055-41.391c-2.398-4.336-6.664-7.32-11.563-8.078c-0.813-0.125-1.633-0.188-2.445-0.188   c-4.063,0-8.016,1.547-11.008,4.391C119.906,155.289,108.211,160,96,160c-26.469,0-48-21.531-48-48c0-26.469,21.531-48,48-48   c12.211,0,23.906,4.711,32.93,13.266c3.594,3.414,8.57,4.984,13.453,4.203c4.898-0.758,9.164-3.742,11.563-8.078   C168.047,47.859,194.891,32,224,32s55.953,15.859,70.055,41.391c2.398,4.336,6.664,7.32,11.563,8.078   c4.883,0.773,9.859-0.789,13.453-4.203C328.094,68.711,339.789,64,352,64c26.469,0,48,21.531,48,48   C400,139.367,379.367,160,352,160z M464,368c0,8.82-7.188,16-16.008,16H400V256h48c4.273,0,8.301,1.664,11.316,4.688   C462.34,263.703,464,267.719,464,272V368z" fill="#FFFFFF"/>
  </g>
</svg>
